<?xml version="1.0" standalone="no"?><!DOCTYPE svg PUBLIC "-//W3C//DTD SVG 1.1//EN" "http://www.w3.org/Graphics/SVG/1.1/DTD/svg11.dtd"><svg t="1616583529015" class="icon" viewBox="0 0 1317 1024" version="1.1" xmlns="http://www.w3.org/2000/svg" p-id="10621" xmlns:xlink="http://www.w3.org/1999/xlink" width="257.2265625" height="200"><defs><style type="text/css"></style></defs><path d="M1013.686857 477.696l10.313143 180.589714q2.267429 39.424-46.884571 73.142857t-134.290286 53.394286-184.539429 19.748571-184.539429-19.748571-134.290286-53.394286-46.884571-73.142857l10.313143-180.589714 327.972571 103.424q12.580571 4.022857 27.428571 4.022857t27.428571-4.022857zM1316.571429 292.571429q0 13.165714-12.580571 17.700571l-640 201.142857q-2.267429 0.585143-5.705143 0.585143t-5.705143-0.585143l-372.589714-117.686857q-24.576 19.456-40.594286 63.707429t-19.456 102.034286q35.986286 20.553143 35.986286 62.317714 0 39.424-33.133714 61.147429l33.133714 247.442286q1.170286 7.972571-4.534857 14.262857-5.12 6.290286-13.677714 6.290286l-109.714286 0q-8.557714 0-13.677714-6.290286-5.705143-6.290286-4.534857-14.262857l33.133714-247.442286q-33.133714-21.723429-33.133714-61.147429 0-41.691429 37.156571-63.414857 6.290286-118.272 56.027429-188.562286l-190.317714-59.465143q-12.580571-4.534857-12.580571-17.700571t12.580571-17.700571l640-201.142857q2.267429-0.585143 5.705143-0.585143t5.705143 0.585143l640 201.142857q12.580571 4.534857 12.580571 17.700571z" p-id="10622"></path></svg>