<?xml version="1.0" standalone="no"?><!DOCTYPE svg PUBLIC "-//W3C//DTD SVG 1.1//EN" "http://www.w3.org/Graphics/SVG/1.1/DTD/svg11.dtd"><svg t="1616423106885" class="icon" viewBox="0 0 1024 1024" version="1.1" xmlns="http://www.w3.org/2000/svg" p-id="1088" xmlns:xlink="http://www.w3.org/1999/xlink" width="200" height="200"><defs><style type="text/css"></style></defs><path d="M511.33 433.47c-94.43 0-171.25-76.82-171.25-171.25S416.91 90.97 511.33 90.97c94.43 0 171.25 76.82 171.25 171.25s-76.82 171.25-171.25 171.25z m0-312.5c-77.89 0-141.25 63.36-141.25 141.25s63.36 141.25 141.25 141.25 141.25-63.36 141.25-141.25-63.36-141.25-141.25-141.25zM511.33 933.47c-59.96 0-108.75-48.79-108.75-108.75s48.79-108.75 108.75-108.75 108.75 48.79 108.75 108.75-48.78 108.75-108.75 108.75z m0-187.5c-43.42 0-78.75 35.33-78.75 78.75s35.33 78.75 78.75 78.75 78.75-35.33 78.75-78.75-35.32-78.75-78.75-78.75zM198.83 839.72c-42.73 0-77.5-34.77-77.5-77.5s34.77-77.5 77.5-77.5 77.5 34.77 77.5 77.5-34.76 77.5-77.5 77.5z m0-125c-26.19 0-47.5 21.31-47.5 47.5s21.31 47.5 47.5 47.5 47.5-21.31 47.5-47.5-21.31-47.5-47.5-47.5zM823.83 839.72c-42.73 0-77.5-34.77-77.5-77.5s34.77-77.5 77.5-77.5 77.5 34.77 77.5 77.5-34.76 77.5-77.5 77.5z m0-125c-26.19 0-47.5 21.31-47.5 47.5s21.31 47.5 47.5 47.5 47.5-21.31 47.5-47.5-21.31-47.5-47.5-47.5z" p-id="1089"></path><path d="M511.33 745.97c-8.28 0-15-6.72-15-15v-312.5c0-8.28 6.72-15 15-15 8.28 0 15 6.72 15 15v312.5c0 8.29-6.71 15-15 15z" p-id="1090"></path><path d="M823.83 714.72c-8.28 0-15-6.72-15-15V543.47c0-8.96-7.29-16.25-16.25-16.25h-562.5c-8.96 0-16.25 7.29-16.25 16.25v156.25c0 8.28-6.72 15-15 15s-15-6.72-15-15V543.47c0-25.5 20.75-46.25 46.25-46.25h562.5c25.5 0 46.25 20.75 46.25 46.25v156.25c0 8.29-6.71 15-15 15z" p-id="1091"></path></svg>