<?xml version="1.0" standalone="no"?><!DOCTYPE svg PUBLIC "-//W3C//DTD SVG 1.1//EN" "http://www.w3.org/Graphics/SVG/1.1/DTD/svg11.dtd"><svg t="1619319272471" class="icon" viewBox="0 0 1024 1024" version="1.1" xmlns="http://www.w3.org/2000/svg" p-id="2840" xmlns:xlink="http://www.w3.org/1999/xlink" width="200" height="200"><defs><style type="text/css"></style></defs><path d="M485.1 942.9c-28.3 0-54.9-11.1-74.9-31.1L112.6 612.3C71.6 571 71.8 504 113 463l331.2-329.3c23.7-23.5 56.8-34.5 90.3-29.5l280.2 17.1c48.1 7.2 83.7 43 90.5 89.4l15.8 284c4.6 31-6.6 64.7-30.2 88.2L559.5 912.2c-19.9 19.8-46.3 30.7-74.4 30.7z m33.5-797.7c-16.8 0-32.7 6.5-44.7 18.4L142.8 492.9c-24.8 24.6-24.9 64.8-0.3 89.6L440.2 882c23.8 24 65.6 24.1 89.6 0.3L860.9 553c14.2-14.1 20.9-34.3 18-54l-15.8-284c-3.9-25.9-25.2-47.4-53-51.6L530 146.2c-5-0.7-8.2-1-11.4-1z" p-id="2841"></path><path d="M665.7 470.8c-28.2 0-54.7-11-74.6-30.9-19.9-19.9-30.9-46.4-30.9-74.6 0-28.2 11-54.7 30.9-74.6 19.9-19.9 46.4-30.9 74.6-30.9 28.2 0 54.7 11 74.7 30.9 19.9 19.9 30.9 46.4 30.9 74.6 0 28.2-11 54.7-30.9 74.6-20 19.9-46.5 30.9-74.7 30.9z m0-168.9c-16.9 0-32.8 6.6-44.8 18.5-12 12-18.6 27.9-18.6 44.8s6.6 32.8 18.6 44.8c23.9 23.9 65.6 23.9 89.6 0 12-12 18.5-27.9 18.5-44.8s-6.6-32.8-18.5-44.8c-12-11.9-27.9-18.5-44.8-18.5z" p-id="2842"></path></svg>