<?xml version="1.0" standalone="no"?><!DOCTYPE svg PUBLIC "-//W3C//DTD SVG 1.1//EN" "http://www.w3.org/Graphics/SVG/1.1/DTD/svg11.dtd"><svg t="1616423091017" class="icon" viewBox="0 0 1024 1024" version="1.1" xmlns="http://www.w3.org/2000/svg" p-id="953" xmlns:xlink="http://www.w3.org/1999/xlink" width="200" height="200"><defs><style type="text/css"></style></defs><path d="M582.09 886.77H180.65c-24.43 0-44.31-19.88-44.31-44.31V168.79c0-24.43 19.88-44.31 44.31-44.31h501.36c24.43 0 44.31 19.88 44.31 44.31V581c0 8.28-6.72 15-15 15s-15-6.72-15-15V168.79c0-7.89-6.42-14.31-14.31-14.31H180.65c-7.89 0-14.31 6.42-14.31 14.31v673.66c0 7.89 6.42 14.31 14.31 14.31H582.1c8.28 0 15 6.72 15 15s-6.72 15.01-15.01 15.01z" p-id="954"></path><path d="M603.63 359.09H259.02c-8.28 0-15-6.72-15-15s6.72-15 15-15h344.61c8.28 0 15 6.72 15 15s-6.72 15-15 15zM603.63 488.31H259.02c-8.28 0-15-6.72-15-15s6.72-15 15-15h344.61c8.28 0 15 6.72 15 15s-6.72 15-15 15zM431.33 617.54h-172.3c-8.28 0-15-6.72-15-15s6.72-15 15-15h172.3c8.28 0 15 6.72 15 15s-6.72 15-15 15zM804.15 899.97c-2.39 0-4.78-0.57-6.98-1.72l-101.72-53.48-101.72 53.48a15.012 15.012 0 0 1-15.8-1.14 15.01 15.01 0 0 1-5.97-14.67l19.43-113.27-82.29-80.22a15.016 15.016 0 0 1-3.8-15.38c1.76-5.43 6.46-9.39 12.11-10.21l113.73-16.53L682 543.79a15 15 0 0 1 26.9 0l50.86 103.05 113.73 16.53a15.01 15.01 0 0 1 12.11 10.21c1.76 5.43 0.29 11.39-3.8 15.38l-82.29 80.22 19.43 113.27c0.96 5.63-1.35 11.32-5.97 14.67a15.105 15.105 0 0 1-8.82 2.85zM551.8 688.68l66.18 64.51c3.54 3.45 5.15 8.41 4.31 13.28l-15.62 91.08 81.8-43c4.37-2.3 9.59-2.3 13.96 0l81.8 43-15.62-91.08c-0.83-4.87 0.78-9.83 4.31-13.28l66.18-64.51-91.45-13.29c-4.89-0.71-9.11-3.78-11.29-8.21l-40.9-82.87-40.9 82.87a15.01 15.01 0 0 1-11.29 8.21l-91.47 13.29z" p-id="955"></path></svg>