<?xml version="1.0" standalone="no"?><!DOCTYPE svg PUBLIC "-//W3C//DTD SVG 1.1//EN" "http://www.w3.org/Graphics/SVG/1.1/DTD/svg11.dtd"><svg t="1616580899604" class="icon" viewBox="0 0 1024 1024" version="1.1" xmlns="http://www.w3.org/2000/svg" p-id="10231" xmlns:xlink="http://www.w3.org/1999/xlink" width="200" height="200"><defs><style type="text/css"></style></defs><path d="M402.285714 694.857143q0 22.820571-7.168 46.884571t-24.576 43.446857-41.398857 19.456-41.398857-19.456-24.576-43.446857-7.168-46.884571 7.168-46.884571 24.576-43.446857 41.398857-19.456 41.398857 19.456 24.576 43.446857 7.168 46.884571zM768 694.857143q0 22.820571-7.168 46.884571t-24.576 43.446857-41.398857 19.456-41.398857-19.456-24.576-43.446857-7.168-46.884571 7.168-46.884571 24.576-43.446857 41.398857-19.456 41.398857 19.456 24.576 43.446857 7.168 46.884571zM859.428571 694.857143q0-68.534857-39.424-116.589714t-106.861714-47.981714q-23.405714 0-111.396571 11.995429-40.594286 6.290286-89.746286 6.290286t-89.746286-6.290286q-86.820571-11.995429-111.396571-11.995429-67.437714 0-106.861714 47.981714t-39.424 116.589714q0 50.322286 18.285714 87.698286t46.299429 58.88 69.705143 34.304 80.018286 16.822857 85.138286 4.022857l96.036571 0q46.884571 0 85.138286-4.022857t80.018286-16.822857 69.705143-34.304 46.299429-58.88 18.285714-87.698286zM987.428571 594.285714q0 118.272-34.889143 189.147429-21.723429 44.032-60.269714 75.995429t-80.603429 49.152-97.133714 27.136-98.011429 12.580571-95.451429 2.56q-44.544 0-81.115429-1.682286t-84.260571-7.168-87.113143-17.115429-78.262857-29.403429-69.12-46.299429-49.152-65.682286q-35.401143-70.290286-35.401143-189.147429 0-135.460571 77.677714-226.304-15.433143-46.884571-15.433143-97.133714 0-66.267429 29.110857-124.562286 61.732571 0 108.544 22.601143t108.032 70.582857q83.968-19.968 176.566857-19.968 84.553143 0 159.963429 18.285714 59.977143-46.884571 106.861714-69.12t108.032-22.308571q29.110857 58.294857 29.110857 124.562286 0 49.737143-15.433143 96.036571 77.677714 91.428571 77.677714 227.401143z" p-id="10232"></path></svg>