<?xml version="1.0" standalone="no"?><!DOCTYPE svg PUBLIC "-//W3C//DTD SVG 1.1//EN" "http://www.w3.org/Graphics/SVG/1.1/DTD/svg11.dtd"><svg t="1616580828083" class="icon" viewBox="0 0 1024 1024" version="1.1" xmlns="http://www.w3.org/2000/svg" p-id="9841" xmlns:xlink="http://www.w3.org/1999/xlink" width="200" height="200"><defs><style type="text/css"></style></defs><path d="M475.428571 548.571429l0 219.428571q0 45.714286-32.036571 77.677714t-77.677714 32.036571l-219.428571 0q-45.714286 0-77.677714-32.036571t-32.036571-77.677714l0-402.285714q0-59.465143 23.113143-113.444571t62.537143-93.403429 93.403429-62.537143 113.444571-23.113143l36.571429 0q14.848 0 25.746286 10.825143t10.825143 25.746286l0 73.142857q0 14.848-10.825143 25.746286t-25.746286 10.825143l-36.571429 0q-60.562286 0-103.424 42.861714t-42.861714 103.424l0 18.285714q0 22.820571 16.018286 38.838857t38.838857 16.018286l128 0q45.714286 0 77.677714 32.036571t32.036571 77.677714zM987.428571 548.571429l0 219.428571q0 45.714286-32.036571 77.677714t-77.677714 32.036571l-219.428571 0q-45.714286 0-77.677714-32.036571t-32.036571-77.677714l0-402.285714q0-59.465143 23.113143-113.444571t62.537143-93.403429 93.403429-62.537143 113.444571-23.113143l36.571429 0q14.848 0 25.746286 10.825143t10.825143 25.746286l0 73.142857q0 14.848-10.825143 25.746286t-25.746286 10.825143l-36.571429 0q-60.562286 0-103.424 42.861714t-42.861714 103.424l0 18.285714q0 22.820571 16.018286 38.838857t38.838857 16.018286l128 0q45.714286 0 77.677714 32.036571t32.036571 77.677714z" p-id="9842"></path></svg>