<?xml version="1.0" standalone="no"?><!DOCTYPE svg PUBLIC "-//W3C//DTD SVG 1.1//EN" "http://www.w3.org/Graphics/SVG/1.1/DTD/svg11.dtd"><svg t="1616580911868" class="icon" viewBox="0 0 1171 1024" version="1.1" xmlns="http://www.w3.org/2000/svg" p-id="10361" xmlns:xlink="http://www.w3.org/1999/xlink" width="228.7109375" height="200"><defs><style type="text/css"></style></defs><path d="M1170.505143 511.414857q0 11.995429-7.460571 20.845714t-18.870857 11.117714l-117.174857 203.410286q1.682286 5.12 1.682286 10.313143 0 11.410286-7.168 20.260571t-18.578286 11.117714l-110.299429 192.585143q1.682286 4.534857 1.682286 9.142857 0 13.165714-9.435429 22.820571t-23.113143 9.728q-14.262857 0-23.405714-10.313143l-228.571429 0q-9.728 11.410286-24.576 11.410286t-24.576-11.410286l-227.986286 0q-9.728 11.410286-24.576 11.410286-13.165714 0-22.820571-9.435429t-9.728-23.113143q0-4.534857 2.267429-11.410286l-110.299429-191.414857q-11.410286-2.267429-18.578286-11.117714t-7.168-20.260571q0-5.12 1.682286-10.313143l-117.686857-203.410286q-11.410286-2.852571-18.578286-11.702857t-7.168-20.260571q0-11.995429 7.68-20.845714t19.163429-11.117714l113.737143-196.534857q0-0.585143-0.292571-1.682286t-0.292571-1.682286q0-20.553143 19.456-29.110857l119.442286-207.433143q-2.267429-5.705143-2.267429-10.313143 0-13.677714 9.728-23.113143t22.820571-9.435429q14.848 0 25.161143 11.995429l226.304 0q9.142857-11.995429 24.576-11.995429t24.576 11.995429l227.401143 0q10.313143-11.995429 25.161143-11.995429 13.165714 0 22.820571 9.435429t9.728 23.113143q0 3.437714-2.267429 10.313143l118.272 204.580571q13.165714 0.585143 22.308571 10.020571t9.142857 22.016q0 7.460571-4.022857 15.433143l106.861714 185.124571q10.825143 2.267429 17.993143 11.117714t7.168 20.260571zM607.670857 967.972571l222.281143 0-195.437714-202.313143-81.700571 0-195.437714 202.313143 205.677714 0q10.313143-9.142857 22.308571-9.142857t22.308571 9.142857zM64.219429 504.027429q0.585143 2.267429 0.585143 7.460571 0 5.705143-1.170286 8.557714l118.857143 205.677714q1.170286 0 2.56 0.585143t3.145143 1.462857l2.852571 1.462857 107.446857-113.737143 0-198.290286-106.861714-110.884571q-7.460571 4.534857-16.603429 5.705143zM563.638857 56.027429l-221.696 0 108.544 114.322286 316.562286-114.322286-160.036571 0q-9.142857 9.142857-21.723429 9.142857t-21.723429-9.142857zM965.339429 748.544q0.585143-3.437714 2.852571-6.290286l-36.571429-38.838857-9.728 45.129143 43.446857 0zM904.777143 748.544l12.580571-59.977143-144.018286-151.990857-169.179429 175.396571 35.986286 36.571429 264.557714 0zM854.528 958.829714l9.142857-16.018286 37.156571-177.152-244.004571 0 190.317714 196.022857q4.534857-2.267429 7.460571-2.852571zM330.532571 967.972571l2.852571 0 195.437714-202.313143-213.138286 0 0 191.414857 2.267429 3.437714q7.972571 2.852571 12.580571 7.460571zM315.684571 748.544l229.741714 0 36.571429-37.741714-176.566857-183.442286-89.746286 94.866286 0 126.317714zM205.385143 748.544l93.110857 0 0-108.032-96.036571 101.156571q2.267429 4.534857 2.852571 6.875429zM204.8 277.138286q0 0.585143 0.292571 1.170286t0.292571 1.170286q0 9.142857-4.534857 16.603429l97.718857 101.156571 0-153.746286zM315.684571 237.129143l0 177.737143 87.405714 89.746286 169.691429-179.419429-127.414857-134.875429zM317.952 63.414857l-2.267429 4.534857 0 150.820571 117.174857-42.276571-109.129143-114.834286q-3.437714 1.170286-5.705143 1.682286zM827.099429 56.027429l-9.142857 0-354.889143 128 121.709714 128.585143zM584.777143 337.115429l-169.691429 180.004571 177.737143 182.272 169.179429-175.396571zM393.362286 515.437714l-77.677714-80.603429 0 162.304zM593.334857 723.456l-23.990857 25.161143 48.566857 0zM785.334857 524.580571l135.972571 143.433143 75.410286-356.571429-1.682286-2.852571-0.585143-0.585143zM981.942857 296.009143q-4.534857-7.460571-4.534857-16.603429l0-1.170286-123.465143-214.820571q-2.852571-0.585143-7.460571-2.852571l-249.709714 264.557714 177.152 186.88zM298.496 225.133714l0-127.414857-93.110857 161.133714zM298.496 765.732571l-93.110857 0 93.110857 161.718857 0-161.718857zM918.528 765.732571l-27.428571 129.682286 74.313143-129.682286-46.884571 0zM988.233143 725.723429l118.272-206.262857q-1.170286-5.705143-1.170286-7.972571 0-0.585143 1.682286-9.142857l-97.718857-169.179429-73.728 349.696 44.032 46.884571q2.852571-1.682286 8.557714-4.022857z" p-id="10362"></path></svg>