<?xml version="1.0" standalone="no"?><!DOCTYPE svg PUBLIC "-//W3C//DTD SVG 1.1//EN" "http://www.w3.org/Graphics/SVG/1.1/DTD/svg11.dtd"><svg t="1616423060273" class="icon" viewBox="0 0 1024 1024" version="1.1" xmlns="http://www.w3.org/2000/svg" p-id="818" xmlns:xlink="http://www.w3.org/1999/xlink" width="200" height="200"><defs><style type="text/css"></style></defs><path d="M795.78 923.52H226.89c-27.88 0-50.56-23.3-50.56-51.94V214.03c0-28.64 22.68-51.94 50.56-51.94h568.89c27.88 0 50.56 23.3 50.56 51.94v657.55c-0.01 28.64-22.69 51.94-50.56 51.94zM226.89 192.09c-11.33 0-20.56 9.84-20.56 21.94v657.55c0 12.1 9.22 21.94 20.56 21.94h568.89c11.33 0 20.56-9.84 20.56-21.94V214.03c0-12.1-9.22-21.94-20.56-21.94H226.89z" p-id="819"></path><path d="M389.43 252.83c-8.28 0-15-6.72-15-15v-121.9c0-8.28 6.72-15 15-15s15 6.72 15 15v121.9c0 8.29-6.72 15-15 15zM633.24 252.83c-8.28 0-15-6.72-15-15v-121.9c0-8.28 6.72-15 15-15s15 6.72 15 15v121.9c0 8.29-6.72 15-15 15zM191.33 475.82h640v30h-640zM633.24 634.24H389.43c-8.28 0-15-6.72-15-15s6.72-15 15-15h243.81c8.28 0 15 6.72 15 15s-6.72 15-15 15zM633.24 801.12H389.43c-8.28 0-15-6.72-15-15s6.72-15 15-15h243.81c8.28 0 15 6.72 15 15s-6.72 15-15 15z" p-id="820"></path></svg>