<?xml version="1.0" standalone="no"?><!DOCTYPE svg PUBLIC "-//W3C//DTD SVG 1.1//EN" "http://www.w3.org/Graphics/SVG/1.1/DTD/svg11.dtd"><svg t="1616580887387" class="icon" viewBox="0 0 1098 1024" version="1.1" xmlns="http://www.w3.org/2000/svg" p-id="10101" xmlns:xlink="http://www.w3.org/1999/xlink" width="214.453125" height="200"><defs><style type="text/css"></style></defs><path d="M338.870857 512q-92.598857 2.852571-151.405714 73.142857l-76.580571 0q-46.884571 0-78.848-23.113143t-32.036571-67.730286q0-201.728 70.875429-201.728 3.437714 0 24.868571 11.995429t55.734857 24.283429 68.022857 12.288q38.253714 0 75.995429-13.165714-2.852571 21.138286-2.852571 37.741714 0 79.433143 46.299429 146.285714zM950.857143 876.032q0 68.534857-41.691429 108.251429t-110.884571 39.716571l-499.419429 0q-69.12 0-110.884571-39.716571t-41.691429-108.251429q0-30.281143 1.974857-59.172571t7.972571-62.317714 15.140571-62.025143 24.576-55.734857 35.401143-46.299429 48.859429-30.573714 63.707429-11.410286q5.705143 0 24.576 12.288t41.691429 27.428571 61.147429 27.428571 77.165714 12.288 77.165714-12.288 61.147429-27.428571 41.691429-27.428571 24.576-12.288q34.889143 0 63.707429 11.410286t48.859429 30.573714 35.401143 46.299429 24.576 55.734857 15.140571 62.025143 7.972571 62.317714 1.974857 59.172571zM365.714286 146.285714q0 60.562286-42.861714 103.424t-103.424 42.861714-103.424-42.861714-42.861714-103.424 42.861714-103.424 103.424-42.861714 103.424 42.861714 42.861714 103.424zM768 365.714286q0 90.843429-64.292571 155.136t-155.136 64.292571-155.136-64.292571-64.292571-155.136 64.292571-155.136 155.136-64.292571 155.136 64.292571 64.292571 155.136zM1097.142857 494.299429q0 44.544-32.036571 67.730286t-78.848 23.113143l-76.580571 0q-58.88-70.290286-151.405714-73.142857 46.299429-66.852571 46.299429-146.285714 0-16.603429-2.852571-37.741714 37.741714 13.165714 75.995429 13.165714 33.718857 0 68.022857-12.288t55.734857-24.283429 24.868571-11.995429q70.875429 0 70.875429 201.728zM1024 146.285714q0 60.562286-42.861714 103.424t-103.424 42.861714-103.424-42.861714-42.861714-103.424 42.861714-103.424 103.424-42.861714 103.424 42.861714 42.861714 103.424z" p-id="10102"></path></svg>