<?xml version="1.0" standalone="no"?><!DOCTYPE svg PUBLIC "-//W3C//DTD SVG 1.1//EN" "http://www.w3.org/Graphics/SVG/1.1/DTD/svg11.dtd"><svg t="1616580759581" class="icon" viewBox="0 0 1024 1024" version="1.1" xmlns="http://www.w3.org/2000/svg" p-id="9711" xmlns:xlink="http://www.w3.org/1999/xlink" width="200" height="200"><defs><style type="text/css"></style></defs><path d="M542.281143 510.317714q0 14.848-9.435429 25.746286t-23.698286 10.825143q-14.848 0-25.746286-9.435429t-10.825143-23.698286q0-14.848 9.728-25.746286t23.990857-10.825143 25.161143 9.435429 10.825143 23.698286zM550.838857 543.451429l199.972571-331.995429q-5.12 4.534857-38.546286 35.693714t-71.68 66.56-77.970286 72.557714-66.852571 63.122286-28.891429 29.403429l-199.460571 331.410286q4.022857-4.022857 38.253714-35.401143t71.972571-66.56 77.677714-72.557714 66.852571-63.414857 28.598857-28.891429zM920.576 512q0 114.834286-59.465143 211.968-1.682286-1.170286-9.728-6.290286t-15.140571-9.435429-9.435429-4.315429q-7.460571 0-7.460571 7.460571 0 5.705143 33.718857 25.161143-42.276571 64-105.398857 108.836571t-138.020571 63.122286l-9.142857-38.253714q-0.585143-5.705143-8.557714-5.705143-2.852571 0-4.534857 3.145143t-1.170286 5.412571l9.142857 38.838857q-41.179429 8.557714-83.456 8.557714-113.737143 0-212.553143-59.977143 0.585143-1.170286 7.460571-11.702857t12.288-19.163429 5.412571-10.825143q0-7.460571-7.460571-7.460571-3.437714 0-9.728 8.265143t-12.873143 19.748571-7.68 13.165714q-64.585143-42.861714-109.714286-107.154286t-62.829714-139.702857l39.424-8.557714q5.705143-1.682286 5.705143-8.557714 0-2.852571-3.145143-4.534857t-5.997714-1.170286l-38.838857 8.557714q-7.972571-41.179429-7.972571-79.433143 0-117.686857 62.317714-216.576 1.170286 0.585143 10.605714 6.875429t17.115429 10.825143 10.020571 4.534857q7.460571 0 7.460571-6.875429 0-3.437714-7.168-8.850286t-18.578286-12.288l-11.410286-6.875429q44.032-64 108.032-108.032t139.410286-61.147429l8.557714 38.253714q1.170286 5.705143 8.557714 5.705143 2.852571 0 4.534857-3.145143t1.170286-5.997714l-8.557714-37.741714q40.594286-7.460571 76.580571-7.460571 116.589714 0 216.576 62.317714-22.308571 32.036571-22.308571 37.156571 0 7.460571 6.875429 7.460571 6.290286 0 27.428571-36.571429 63.414857 42.861714 107.154286 106.276571t61.44 137.728l-32.036571 6.875429q-5.705143 1.170286-5.705143 9.142857 0 2.852571 3.145143 4.534857t5.412571 1.170286l32.548571-7.460571q7.972571 41.179429 7.972571 80.018286zM969.142857 512q0-93.110857-36.278857-177.737143t-97.426286-145.700571-145.700571-97.426286-177.737143-36.278857-177.737143 36.278857-145.700571 97.426286-97.426286 145.700571-36.278857 177.737143 36.278857 177.737143 97.426286 145.700571 145.700571 97.426286 177.737143 36.278857 177.737143-36.278857 145.700571-97.426286 97.426286-145.700571 36.278857-177.737143zM1024 512q0 104.009143-40.594286 198.875429t-109.129143 163.401143-163.401143 109.129143-198.875429 40.594286-198.875429-40.594286-163.401143-109.129143-109.129143-163.401143-40.594286-198.875429 40.594286-198.875429 109.129143-163.401143 163.401143-109.129143 198.875429-40.594286 198.875429 40.594286 163.401143 109.129143 109.129143 163.401143 40.594286 198.875429z" p-id="9712"></path></svg>