<?xml version="1.0" standalone="no"?><!DOCTYPE svg PUBLIC "-//W3C//DTD SVG 1.1//EN" "http://www.w3.org/Graphics/SVG/1.1/DTD/svg11.dtd"><svg t="1619319197761" class="icon" viewBox="0 0 1024 1024" version="1.1" xmlns="http://www.w3.org/2000/svg" p-id="799" xmlns:xlink="http://www.w3.org/1999/xlink" width="200" height="200"><defs><style type="text/css"></style></defs><path d="M668.525714 902.582857l-66.048 22.747429-1.097143-67.730286 184.173715-263.826286 66.121143 47.177143L668.525714 902.582857z m240.054857-300.105143l-106.203428-75.337143a45.348571 45.348571 0 0 0-22.747429-6.509714c-12.434286 0-24.941714 5.412571-31.963428 16.310857l-202.605715 289.792a49.444571 49.444571 0 0 0-7.606857 23.259429l2.194286 110.08a38.692571 38.692571 0 0 0 50.322286 36.790857l106.203428-36.790857 19.529143-13.604572 202.605714-289.792a40.374857 40.374857 0 0 0-9.728-54.198857z" fill="#333333" p-id="800"></path><path d="M371.638857 948.150857H175.030857a34.377143 34.377143 0 0 1-34.157714-34.157714V175.030857a34.377143 34.377143 0 0 1 34.157714-34.157714h597.577143a34.377143 34.377143 0 0 1 34.084571 34.157714v265.508572c0 18.870857 15.213714 34.084571 34.157715 34.084571 19.017143 0 34.084571-15.213714 34.084571-34.157714v-265.508572C874.934857 119.222857 829.44 73.142857 773.12 73.142857H175.030857C119.222857 73.142857 73.142857 118.637714 73.142857 175.030857v739.474286c0 55.808 45.494857 101.888 101.888 101.888H371.565714c19.017143 0 34.157714-15.213714 34.157715-34.157714a34.377143 34.377143 0 0 0-34.157715-34.084572" fill="#333333" p-id="801"></path><path d="M289.353143 576.438857a34.011429 34.011429 0 0 0-34.157714 34.157714c0 18.944 15.140571 34.157714 34.157714 34.157715H520.045714a34.011429 34.011429 0 0 0 34.084572-34.157715 33.938286 33.938286 0 0 0-34.084572-34.157714H289.353143z m403.529143-127.268571a34.011429 34.011429 0 0 0-34.084572-34.157715H289.353143a34.011429 34.011429 0 0 0-34.157714 34.157715c0 18.944 15.140571 34.084571 34.157714 34.084571h368.859428c19.529143-1.097143 34.669714-16.237714 34.669715-34.084571z m0-156.013715a34.011429 34.011429 0 0 0-34.084572-34.157714H289.353143a34.011429 34.011429 0 0 0-34.157714 34.157714c0 18.944 15.140571 34.084571 34.157714 34.084572h368.859428a34.816 34.816 0 0 0 34.669715-34.084572z" fill="#333333" p-id="802"></path></svg>